# xmcd
#
# Track frame offsets:
#	150
#	13565
#	27587
#	42702
#	59057
#	72977
#	88882
#	104793
#	118597
#	134153
#	147671
#
# Disc length: 2175 seconds
#
# Revision: 0
# Processed by: cddbd v1.5PL3 Copyright (c) Steve Scherf et al.
# Submitted via: dBpowerAMP V4.0
#
DISCID=ba087d0b
DTITLE=Scotty Emerick - Coast Is Clear
DYEAR=1900
DGENRE=
TTITLE0=The Coast Is Clear
TTITLE1=Where's My Beer
TTITLE2=I Can't Take You Anywhere
TTITLE3=I'd Be Over You
TTITLE4=Enjoy Yourself
TTITLE5=Uncomplicated
TTITLE6=So Much More
TTITLE7=She Let Herself Go
TTITLE8=She Was Never Mine To Lose
TTITLE9=Sittin' Pretty
TTITLE10=Show You About Leaving
EXTD=
EXTT0=
EXTT1=
EXTT2=
EXTT3=
EXTT4=
EXTT5=
EXTT6=
EXTT7=
EXTT8=
EXTT9=
EXTT10=
PLAYORDER=
